<svg width="100" height="64" viewBox="0 0 100 64" fill="none" xmlns="http://www.w3.org/2000/svg">
<path d="M54.8217 12.9094C54.3512 12.9641 53.8806 12.9641 53.41 13.0188C53.8806 13.7299 54.41 14.3863 54.8806 15.0974C54.7629 15.1521 54.6453 15.1521 54.5865 15.1521C54.2923 15.2068 53.9982 15.2068 53.6453 15.2615C53.5276 15.2615 53.41 15.2615 53.3512 15.3162C53.2923 15.3162 53.2923 15.3709 53.2923 15.4256C53.2923 15.4803 53.3512 15.535 53.3512 15.535C54.1747 16.5196 55.1747 17.3948 56.2923 18.1059C56.9394 18.4888 57.6453 18.7076 58.41 18.9264C59.1747 19.0905 59.9394 19.2 60.7041 19.3094C60.9394 19.3641 61.1747 19.3641 61.41 19.4188C61.7629 19.4735 62.057 19.5282 62.41 19.5829V19.6376C61.1159 20.8957 59.7629 22.0444 58.2335 23.029C57.5276 23.4666 56.8217 23.8495 56.057 24.1777C55.7629 24.2871 55.41 24.3965 55.1159 24.3418C54.8806 24.3418 54.7041 24.2871 54.4688 24.2871C54.2923 24.2871 54.1159 24.2324 53.9394 24.2324C53.7041 24.2324 53.5276 24.2324 53.2923 24.2324C52.9982 24.2324 52.6453 24.2871 52.3512 24.2871C52.1159 24.2871 51.9394 24.3418 51.7041 24.3418C51.41 24.3418 51.1159 24.3965 50.8217 24.4512C50.7041 24.4512 50.6453 24.4512 50.5276 24.4512C50.2923 24.4512 50.057 24.5059 49.8806 24.4512C49.5865 24.4512 49.2923 24.3965 49.057 24.3965C48.4688 24.2871 47.9982 24.123 47.4688 23.8495C46.1159 23.1384 44.7041 22.4273 43.2923 21.8256C41.8217 21.1692 40.3512 20.6222 38.7629 20.294C38.2923 20.1846 37.8806 20.0752 37.41 20.0205C37.1159 19.9658 36.7629 19.9111 36.4688 19.9111C36.1159 19.8564 35.7041 19.8564 35.3512 19.8017C34.7629 19.8017 34.1747 19.5829 33.7629 19.1999C33.5276 18.9811 33.3512 18.7623 33.2923 18.4888C33.2335 18.1606 33.3512 17.8871 33.5865 17.723C33.7629 17.5589 33.9982 17.5042 34.2923 17.4495C34.4688 17.4495 34.6453 17.3948 34.8217 17.3948C35.1159 17.3948 35.4688 17.4495 35.7629 17.5589C36.5276 17.8871 37.3512 18.1059 38.1747 18.27C38.7629 18.3794 39.3512 18.4888 39.9394 18.5982C40.2335 18.6529 40.4688 18.6529 40.7629 18.7076C41.057 18.7623 41.2923 18.7623 41.5865 18.7623C41.9394 18.817 42.2335 18.6529 42.5276 18.4888C42.9394 18.2153 43.1747 17.8324 43.2335 17.3401C43.2335 17.176 43.2335 17.0119 43.2335 16.8478C43.1159 16.5196 42.8217 16.4102 42.4688 16.4649C42.2923 16.5196 42.1159 16.5743 41.9394 16.629C41.41 16.9025 40.7041 16.7384 40.3512 16.4102C40.1747 16.2461 40.1159 16.082 40.1159 15.8632C40.1159 15.6444 40.2335 15.4803 40.3512 15.3709C40.41 15.2615 40.5276 15.2068 40.6453 15.1521C40.8806 14.988 41.057 14.8239 41.1747 14.6051C41.2335 14.5504 41.2335 14.441 41.2923 14.3863C41.2923 14.2769 41.2335 14.2222 41.1159 14.1675C40.9982 14.1675 40.8806 14.2222 40.7629 14.2222C40.5276 14.2769 40.3512 14.3863 40.1747 14.4957C39.9394 14.6051 39.6453 14.7145 39.3512 14.7145C38.8217 14.7145 38.3512 14.4957 38.057 14.1128C37.8806 13.9487 37.7629 13.7299 37.6453 13.5111C37.5276 13.2376 37.5865 13.1282 37.8217 12.9094C38.057 12.7452 38.2923 12.6358 38.5276 12.417C39.057 12.0341 39.4688 11.5418 39.8217 11.0495C40.1747 10.6119 40.4688 10.1196 40.8217 9.682C41.2335 9.18969 41.7041 8.75209 42.3512 8.53328C42.7041 8.42388 43.057 8.31448 43.41 8.31448C43.7629 8.20508 44.2335 8.20508 44.7041 8.20508C44.9982 8.20508 45.2923 8.20508 45.5276 8.20508C45.8217 8.25978 46.1747 8.25978 46.4688 8.31448C46.7629 8.36918 46.9982 8.42388 47.2923 8.47858C48.7629 8.80679 50.057 9.3538 51.2923 10.1196C52.2923 10.7213 53.2335 11.4871 54.057 12.2529C54.2923 12.4717 54.4688 12.6358 54.7041 12.8547C54.7629 12.8547 54.7629 12.8547 54.8217 12.9094Z" fill="white"/>
<path d="M65.1174 21.5523C64.588 22.2087 64.0586 22.8104 63.4704 23.3574C60.9998 25.7095 58.1762 27.6241 54.8821 28.9369C53.7645 29.3745 52.588 29.7027 51.4115 29.9762C50.9409 30.0856 50.4704 30.195 49.9998 30.2497C49.588 30.3044 49.2351 30.4138 48.8233 30.4138C48.4704 30.4685 48.0586 30.5232 47.7057 30.5779C47.4115 30.5779 47.1174 30.6326 46.7645 30.6873C46.5292 30.6873 46.2351 30.742 45.9998 30.742C45.7645 30.742 45.5292 30.742 45.2351 30.7967C45.0586 30.7967 44.9409 30.7967 44.7645 30.7967C44.2939 30.7967 43.7645 30.7967 43.2939 30.7967C43.0586 30.7967 42.7645 30.7967 42.5292 30.7967C42.1762 30.7967 41.8821 30.742 41.5292 30.742C41.2351 30.742 40.9409 30.6873 40.7057 30.6873C40.4115 30.6326 40.0586 30.6326 39.7645 30.5779C39.4704 30.5232 39.1174 30.4685 38.8233 30.4138C38.5292 30.3591 38.2939 30.3044 37.9998 30.2497C37.5292 30.1403 37.1174 30.0309 36.7057 29.9215C35.4115 29.5386 34.2351 29.0463 33.1174 28.3352C32.1762 27.6788 31.3527 26.9129 30.8233 25.9283C30.588 25.4907 30.4115 24.9984 30.2351 24.5061C30.1762 24.2873 30.1174 24.0138 30.1174 23.795C30.0586 23.4121 30.0586 22.9745 30.0586 22.5916C30.0586 22.154 30.1762 21.7164 30.2351 21.2788C30.2939 20.8959 30.4115 20.5129 30.5292 20.1847C30.9998 18.8172 31.7057 17.5591 32.4704 16.301C32.6468 16.0275 32.8233 15.754 32.9998 15.5352C32.9998 15.5352 32.9998 15.4805 33.0586 15.4805C33.0586 15.5352 33.0586 15.5352 32.9998 15.5899C32.5292 16.4104 32.0586 17.2856 31.7057 18.1608C31.5292 18.5437 31.4115 18.9813 31.2939 19.3642C31.1762 19.6924 31.1174 20.0206 31.0586 20.3488C30.9998 20.6223 30.9998 20.8412 30.9998 21.1147C30.9998 21.2788 30.9998 21.4429 30.9998 21.607C30.9998 21.9899 31.0586 22.3728 31.1174 22.7557C31.1762 23.0839 31.2939 23.3574 31.4115 23.6309C31.6468 24.1779 31.9998 24.7249 32.4115 25.1625C33.1174 25.8736 33.9998 26.4206 34.9409 26.8035C35.3527 26.9676 35.7645 27.1318 36.2351 27.2412C36.6468 27.3506 36.9998 27.46 37.4115 27.5147C37.7645 27.5694 38.1762 27.6241 38.5292 27.6788C38.8233 27.7335 39.1174 27.7335 39.4704 27.7882C39.7645 27.7882 40.0586 27.8429 40.3527 27.8429C40.9998 27.8976 41.588 27.8429 42.2351 27.8429C42.588 27.8429 42.9409 27.7882 43.2939 27.7882C43.588 27.7882 43.8821 27.7335 44.1762 27.7335C44.4704 27.6788 44.7645 27.6788 44.9998 27.6241C45.2351 27.5694 45.4704 27.5694 45.7057 27.5147C45.9998 27.46 46.2939 27.4053 46.588 27.4053C46.9998 27.3506 47.4704 27.2412 47.8821 27.1865C49.5292 26.8582 51.1174 26.4206 52.7057 25.8736C54.6468 25.2172 56.4704 24.3967 58.1762 23.3574C59.588 22.4822 60.9409 21.5523 62.0586 20.3488C62.3527 20.0206 62.6468 19.6924 62.9409 19.3642C62.9998 19.3642 62.9998 19.4189 62.9998 19.4189C63.2939 20.0206 63.8233 20.5129 64.2939 21.0053C64.5292 21.2241 64.7645 21.3882 64.9998 21.5523C65.0586 21.4976 65.1174 21.4976 65.1174 21.5523Z" fill="white"/>
<path d="M65.117 21.5522C64.9993 21.4428 64.8228 21.3334 64.7052 21.224C64.3523 20.9505 64.0581 20.7317 63.8228 20.4035C63.5875 20.13 63.3523 19.8565 63.1758 19.583C63.117 19.4736 63.0581 19.3642 62.9993 19.3095C62.8817 19.036 62.764 18.8172 62.7052 18.489C62.6464 18.3249 62.6464 18.1608 62.6464 17.942C62.6464 17.7779 62.6464 17.6685 62.6464 17.5044C62.6464 17.2309 62.764 16.9574 62.8228 16.7386C62.9993 16.3557 63.1758 16.0275 63.5287 15.7539C63.6464 15.6445 63.764 15.5898 63.9405 15.5898C64.0581 15.5898 64.117 15.6445 64.1758 15.6992C64.2934 15.8086 64.2934 15.9727 64.3523 16.1369C64.4111 16.4651 64.2934 16.7933 64.1758 17.0668C64.117 17.2309 64.0581 17.3403 64.0581 17.5044C64.0581 17.5591 63.9993 17.5591 63.9993 17.6138C63.8817 17.8326 63.764 18.0514 63.7052 18.2702C63.7052 18.2702 63.7052 18.2702 63.7052 18.3249C63.764 18.3796 63.7052 18.489 63.7052 18.5437C63.7052 18.8172 63.764 19.036 63.8228 19.2548C63.9993 19.6377 64.3523 19.9112 64.6464 20.1847C64.9405 20.4035 65.2934 20.6223 65.7052 20.8411C65.7052 20.8411 65.7052 20.8411 65.764 20.8411C65.764 20.8958 65.8228 20.8958 65.8817 20.8958C66.6464 21.2787 67.4699 21.6069 68.2934 21.9898C68.9405 22.2633 69.5875 22.5916 70.2346 22.9198C70.5287 23.0839 70.764 23.248 70.9993 23.5215C71.4699 24.0685 71.4111 24.7796 70.764 25.2172C70.7052 25.2719 70.6464 25.2719 70.5875 25.3266C70.117 25.6001 69.5875 25.7095 69.0581 25.6548C68.2346 25.6001 67.4699 25.3266 66.764 24.9437C66.2934 24.6702 65.8228 24.342 65.4111 24.0138C65.4111 24.0138 65.3523 23.9591 65.2934 23.9591C65.7052 24.3967 66.117 24.7796 66.5875 25.2172C67.4111 25.983 68.2934 26.6941 69.117 27.4599C69.5875 27.8975 70.0581 28.3351 70.4111 28.8822C70.6464 29.1557 70.8228 29.4839 70.8817 29.8668C70.9405 30.1403 70.9405 30.4138 70.8817 30.6873C70.8817 30.742 70.8228 30.7967 70.764 30.7967C70.4111 30.7967 70.0581 30.7967 69.7052 30.7967C69.3523 30.7967 68.9405 30.7967 68.5875 30.8514C68.3522 30.8514 68.117 30.8514 67.8817 30.8514C67.6464 30.8514 67.4699 30.8514 67.2346 30.8514C67.2346 30.7967 67.2346 30.7967 67.2934 30.742C67.4699 30.4138 67.7052 30.0856 67.764 29.7574C67.8228 29.3198 67.764 28.9916 67.2346 28.7181C66.764 28.4445 66.2346 28.2257 65.7052 28.0616C64.764 27.7881 63.8228 27.5693 62.8817 27.3505C61.9993 27.1317 61.117 26.9676 60.2346 26.7488H60.1758C60.1758 26.6941 60.2346 26.6941 60.2346 26.6941C61.9405 25.1625 63.6464 23.6309 65.3522 22.0992C65.4111 22.0445 65.4699 22.0445 65.5287 22.0992C66.764 22.8104 67.9405 23.4668 69.1758 24.1779C69.2346 24.2326 69.2934 24.2326 69.3523 24.1779C69.4111 24.1232 69.4111 24.0138 69.3523 23.9591C69.2934 23.9044 69.2346 23.8497 69.1758 23.795C68.8817 23.6309 68.5875 23.4668 68.2934 23.3027C67.4699 22.8651 66.7052 22.4822 65.9405 21.9898C65.5287 21.8257 65.2934 21.6616 65.117 21.5522Z" fill="white"/>
<path d="M65.6455 20.841C65.5866 20.841 65.5278 20.7863 65.469 20.7316C64.9984 20.4581 64.5278 20.1846 64.116 19.8017C63.8219 19.5282 63.6455 19.2547 63.5866 18.8718C63.5278 18.7077 63.5278 18.4889 63.6455 18.3248C63.8219 18.106 63.9396 17.8325 64.0572 17.6137C64.2337 17.2855 64.4102 16.9026 64.5278 16.5197C64.6455 16.1915 64.7631 15.8085 64.8219 15.4256C64.8807 15.1521 64.8807 14.9333 64.9396 14.6598C64.9396 14.3863 64.9396 14.1128 64.9396 13.8393C64.9396 13.5658 64.8807 13.2376 64.8219 12.9641C64.7631 12.6359 64.7043 12.3077 64.5866 12.0342C64.2337 10.8855 63.6455 9.84615 62.9396 8.80683C62.2337 7.82222 61.3513 6.947 60.469 6.07179L60.4102 6.01709C60.469 6.01709 60.469 6.01709 60.469 6.01709C61.9396 6.6735 63.2925 7.43931 64.5278 8.42393C65.5866 9.24444 66.469 10.1744 67.0572 11.3231C67.2925 11.706 67.469 12.0889 67.5866 12.5265C67.7043 12.9094 67.8219 13.2376 67.8807 13.6205C67.9396 13.894 67.9396 14.1675 67.9396 14.3863C67.9396 14.4957 67.9396 14.6598 67.9396 14.7692C67.9396 15.0427 67.8807 15.3709 67.8807 15.6444C67.8219 16.082 67.7043 16.5197 67.5866 16.9573C67.5278 17.2308 67.4102 17.5043 67.2925 17.8325C66.8807 18.8171 66.3513 19.747 65.7043 20.6222C65.7043 20.7863 65.6455 20.7863 65.6455 20.841Z" fill="white"/>
<path d="M23.4111 37.3608H17.1758V55.4121H23.4111V37.3608Z" fill="white"/>
<path d="M35.8217 41.6275H23.4688V37.3608L30.704 37.4155L35.8217 41.6275Z" fill="white"/>
<path d="M30.0591 50.7625L29.9414 41.5728L35.8238 41.6275L35.7649 47.6445L30.0591 50.7625Z" fill="white"/>
<path d="M30.0572 50.7623H23.4102V46.2769H29.9984L30.0572 50.7623Z" fill="white"/>
<path d="M45.9412 37.3608H40V55.4121H45.9412V37.3608Z" fill="white"/>
<path d="M60.4685 37.3608H54.5273V55.4121H60.4685V37.3608Z" fill="white"/>
<path d="M45.8881 48.5127H54.5352V43.9725H45.8881V48.5127Z" fill="white"/>
<path d="M64.8242 55.4121L64.9419 37.3608L71.236 47.0976L71.3536 55.4121H64.8242Z" fill="white"/>
<path d="M64.9414 37.3608H70.6473L82.4708 55.4121H76.5885L64.9414 37.3608Z" fill="white"/>
<path d="M82.4697 55.4121L76.2344 45.8942V37.3608H82.4697V55.4121Z" fill="white"/>
</svg>
